# xmcd
#
# Track frame offsets:
#	150
#	15080
#	31230
#	49092
#	65207
#	83422
#	100397
#	114135
#	128828
#	145460
#	161647
#	176875
#	190408
#	208865
#
# Disc length: 2789 seconds
#
# Revision: 3
# Processed by: cddbd v1.5.2PL0 Copyright (c) Steve Scherf et al.
# Submitted via: audiograbber 1.80.04
#
DISCID=bf0ae30e
DTITLE=Caviar Com Rapadura - Don't Go
DYEAR=2001
DGENRE=Forró Estilizado
TTITLE0=Don't Go
TTITLE1=Parece Mágia
TTITLE2=Imortal
TTITLE3=Nada Pode Se Perder (Making Love)
TTITLE4=Nosso Amor é Assim
TTITLE5=Te Amar (Of The Heart)
TTITLE6=Amar Você
TTITLE7=Tira de Pano
TTITLE8=De Mal a Pior
TTITLE9=Nem Um Toque
TTITLE10=Granada
TTITLE11=La Luna
TTITLE12=Que Se Passa
TTITLE13=Vinheta
EXTD=dayvisondj@hotmail.com\nDayvison DJ Is Of Recife - PE - Brazil\n8690-4073
EXTT0=
EXTT1=
EXTT2=
EXTT3=
EXTT4=
EXTT5=
EXTT6=
EXTT7=
EXTT8=
EXTT9=
EXTT10=
EXTT11=
EXTT12=
EXTT13=
PLAYORDER=
